<?xml version="1.0" encoding="UTF-8" standalone="yes"?>
<!DOCTYPE svg PUBLIC "-//W3C//DTD SVG 1.1//EN" "http://www.w3.org/Graphics/SVG/1.1/DTD/svg11.dtd">

<svg width="2000" height="500" viewBox="0 0 2000 500" xmlns="http://www.w3.org/2000/svg" xmlns:xlink="http://www.w3.org/1999/xlink" version="1.1" baseProfile="full">
    <defs>
        <linearGradient id="105553203922816105553131540640" x1="50.000000%" x2="50.000000%" y1="0.000000%" y2="100.000000%">
            <stop offset="0%" style="stop-color:#8b00fe;stop-opacity:1.000000"></stop>
            <stop offset="100%" style="stop-color:#17a1c8;stop-opacity:1.000000"></stop>
        </linearGradient>
        <linearGradient id="105553203931936105553131544896" x1="50.000000%" x2="50.000000%" y1="453.535339%" y2="0.000000%">
            <stop offset="0%" style="stop-color:#17a1c8;stop-opacity:1.000000"></stop>
            <stop offset="100%" style="stop-color:#8b00fe;stop-opacity:1.000000"></stop>
        </linearGradient>
        <linearGradient id="105553203931936105553131543104" x1="50.000000%" x2="50.000000%" y1="100.000000%" y2="-38.153847%">
            <stop offset="0%" style="stop-color:#17a1c8;stop-opacity:1.000000"></stop>
            <stop offset="100%" style="stop-color:#8b00fe;stop-opacity:1.000000"></stop>
        </linearGradient>
    </defs>
    <g transform="scale(1,-1) translate(0,-500)">
        <path d="M 204.725279 272.612301 C 204.725279 268.459902 201.355215 265.089838 197.202816 265.089838 C 193.050416 265.089838 189.680352 268.459902 189.680352 272.612301 C 189.680352 276.764701 193.050416 280.134765 197.202816 280.134765 C 201.355215 280.134765 204.725279 276.764701 204.725279 272.612301 Z M 121.978183 280.134765 C 117.825783 280.134765 114.455719 276.764701 114.455719 272.612301 C 114.455719 268.459902 117.825783 265.089838 121.978183 265.089838 C 126.130582 265.089838 129.500646 268.459902 129.500646 272.612301 C 129.500646 276.764701 126.130583 280.134765 121.978183 280.134765 Z M 167.112963 287.657228 L 152.068036 287.657228 L 152.068036 272.612301 L 167.112963 272.612301 L 167.112963 287.657228 Z M 159.590499 212.432595 C 151.293222 212.432595 144.545573 219.180244 144.545573 227.477521 L 129.500646 227.477521 C 129.500646 210.882967 142.995945 197.387668 159.590499 197.387668 C 176.185053 197.387668 189.680352 210.882968 189.680352 227.477521 L 174.635426 227.477521 C 174.635426 219.180240 167.887781 212.432595 159.590499 212.432595 Z M 317.562229 1.803622 L 1.618769 1.803622 L 1.618769 88.116359 C 1.618769 105.575997 10.382439 121.598844 24.178637 131.272731 L 24.833092 132.739611 C 44.331312 181.500229 54.276013 233.126887 54.276013 285.934583 L 54.276013 302.702155 C 54.276013 316.137274 56.901352 328.955552 61.512622 340.780862 C 59.173136 351.763659 50.725410 400.772507 77.588127 435.165209 C 94.694202 457.085669 122.286606 468.196348 159.590499 468.196348 C 196.894392 468.196348 224.486789 457.085669 241.592872 435.165213 C 268.455589 400.764988 260.007862 351.763663 257.668377 340.780866 C 262.279653 328.955550 264.904986 316.137269 264.904986 302.702155 L 264.904986 285.934583 C 264.904986 233.126891 274.849682 181.500222 294.453221 132.483853 L 295.047496 131.235124 C 308.813618 121.553706 317.562229 105.560953 317.562229 88.116359 L 317.562229 1.803622 Z M 275.240854 124.284381 L 208.667051 143.308691 L 190.846336 107.659738 L 206.891749 83.595379 L 159.590499 36.301628 L 116.276156 79.615971 C 107.520001 77.915906 98.605886 77.028255 89.669202 77.028255 L 80.168331 77.028255 C 79.175366 74.861786 78.031951 72.755496 76.692953 70.754521 C 71.863527 63.525447 69.320939 55.115333 69.320939 46.434387 L 69.320939 45.652050 C 69.320939 34.940062 73.179963 24.837395 80.160809 16.848538 L 158.951090 16.848538 L 159.259511 16.901196 C 214.007998 26.025944 264.513815 53.528069 301.960635 94.435226 C 299.545926 108.464636 289.240159 120.282419 275.240854 124.284381 Z M 214.993454 16.848548 L 239.020202 16.848548 C 243.059765 21.467341 246.061228 26.770678 247.851574 32.517839 C 237.274975 26.560051 226.299704 21.309358 214.993454 16.848548 Z M 137.685081 405.692200 C 144.756201 407.196691 152.075554 408.016641 159.590499 408.016641 C 167.105444 408.016641 174.424797 407.196693 181.495912 405.692200 C 179.133856 415.629375 170.242310 423.061568 159.590499 423.061568 C 148.938688 423.061568 140.047143 415.629375 137.685081 405.692200 Z M 210.735726 394.686834 C 207.094853 400.938001 202.047281 407.204213 195.126614 412.281875 C 196.322686 408.701183 197.105022 404.939951 197.157679 400.968091 C 201.844180 399.170227 206.395267 397.109071 210.735726 394.686834 Z M 193.403964 430.794659 L 202.965015 445.651524 C 192.794663 449.841537 180.803843 452.233681 167.112963 452.880612 L 167.112963 437.685237 C 177.313415 436.842719 186.009398 434.367829 193.403964 430.794659 Z M 152.068036 452.873090 C 138.377152 452.226159 126.386346 449.834015 116.215977 445.651526 L 125.777028 430.794661 C 133.171615 434.367829 141.867569 436.842719 152.068036 437.677713 L 152.068036 452.873090 Z M 108.445273 394.686834 C 112.785734 397.109067 117.336825 399.170222 122.023319 400.968090 C 122.075976 404.932429 122.858312 408.693660 124.054384 412.281875 C 117.133723 407.204217 112.086139 400.938003 108.445273 394.686834 Z M 69.320939 302.702155 L 69.320939 290.997202 C 71.652903 292.358768 74.165406 293.419435 76.843403 294.111502 L 76.843403 307.418740 C 76.843403 333.852681 98.350120 355.359398 124.784055 355.359398 C 125.461077 355.359398 126.123054 355.239038 126.800076 355.208949 L 159.590499 379.807404 L 192.380918 355.208949 C 193.057940 355.239039 193.712394 355.359398 194.396939 355.359398 C 220.830864 355.359398 242.337596 333.852681 242.337596 307.418745 L 242.337596 294.111507 C 245.015593 293.411918 247.528095 292.358773 249.860059 290.997207 L 249.860059 302.702155 C 249.860059 352.478295 209.366640 392.971714 159.590499 392.971714 C 109.814359 392.971714 69.320939 352.478299 69.320939 302.702155 Z M 227.292669 242.522448 L 227.292669 280.134765 C 227.292669 298.271424 212.533596 313.030498 194.396936 313.030498 C 187.874960 313.030498 181.571136 311.119792 176.147439 307.509010 L 159.590499 296.466029 L 143.033558 307.501483 C 137.609861 311.112265 131.306037 313.022971 124.784061 313.022971 C 106.647402 313.030491 91.888329 298.271418 91.888329 280.134765 L 91.888329 242.522448 C 91.888329 205.195986 122.264037 174.820278 159.590499 174.820278 C 196.916961 174.820278 227.292669 205.195972 227.292669 242.522448 Z M 76.843403 278.043521 C 72.367537 275.433226 69.320939 270.633894 69.320939 265.089839 C 69.320939 259.545784 72.367537 254.746452 76.843403 252.136157 L 76.843403 278.043521 Z M 124.784055 340.314471 C 109.671426 340.314471 97.041211 330.016219 93.204755 316.107185 C 101.652481 323.531856 112.687934 328.075424 124.784055 328.075424 C 134.284927 328.075424 143.477376 325.292112 151.375964 320.026387 L 159.590499 314.550040 L 167.805029 320.026393 C 175.703615 325.292118 184.896066 328.075429 194.396938 328.075429 C 206.500581 328.075429 217.536035 323.531862 225.976238 316.107191 C 222.139771 330.016223 209.509578 340.314471 194.396929 340.314471 C 187.874953 340.314471 181.571128 338.403766 176.147432 334.792983 L 159.590499 323.750010 L 143.033558 334.785463 C 137.609855 338.403768 131.306035 340.314471 124.784055 340.314471 Z M 151.375976 347.310364 L 159.590499 341.834006 L 167.805029 347.310359 C 169.640510 348.536521 171.566261 349.597188 173.529624 350.552541 L 159.590499 361.001245 L 145.651374 350.545021 C 147.614745 349.597185 149.540485 348.536527 151.375976 347.310364 Z M 242.337596 252.136155 C 246.813462 254.746450 249.860059 259.545782 249.860059 265.089837 C 249.860059 270.633893 246.813461 275.433224 242.337596 278.043519 L 242.337596 252.136155 Z M 43.503851 139.803221 L 106.933256 157.924838 L 106.933256 178.739493 C 90.150641 192.618438 78.987305 212.996791 77.174390 235.962871 C 73.405636 236.895656 69.922736 238.505464 66.868616 240.709545 C 63.227748 206.279214 55.404379 172.525925 43.503851 139.803221 Z M 121.978183 154.028190 L 141.671992 114.640572 L 177.509007 114.640572 L 197.202816 154.028190 L 197.202816 168.907623 C 185.904084 163.115327 173.138446 159.775352 159.590499 159.775352 C 146.042553 159.775352 133.276923 163.115325 121.978183 168.907622 L 121.978183 154.028190 Z M 131.659598 85.506063 L 159.590499 57.575176 L 187.521406 85.506083 L 178.133372 99.595645 L 141.047630 99.595645 L 131.659598 85.506063 Z M 252.319902 240.717059 C 249.258259 238.512977 245.775359 236.895647 242.006604 235.962862 C 240.193691 212.996781 229.030355 192.618427 212.247739 178.739484 L 212.247739 157.924828 L 275.692195 139.795691 C 263.761568 172.638757 255.953265 206.361973 252.319902 240.717059 Z M 245.391703 363.551359 C 245.993500 374.120419 245.579764 387.299776 242.081819 400.298594 L 229.256018 390.677363 C 231.384875 385.426683 232.746441 380.830458 233.528778 377.580754 C 237.891823 373.277905 241.826062 368.561322 245.391703 363.551359 Z M 216.257223 438.497663 L 206.124463 422.760670 C 213.007518 417.209092 218.348466 410.762340 222.357939 404.315590 L 236.530260 414.944831 C 234.619554 418.766242 232.407950 422.489862 229.692341 425.965240 C 225.908550 430.802181 221.395055 434.947059 216.257223 438.497663 Z M 82.643221 414.952352 L 96.823064 404.315588 C 100.832537 410.762339 106.173487 417.209090 113.056540 422.760668 L 102.923782 438.497661 C 97.770895 434.932013 93.234849 430.772092 89.443527 425.912580 C 86.742964 422.452249 84.546406 418.751197 82.643221 414.952352 Z M 73.759194 363.513745 C 77.324842 368.538751 81.274135 373.270381 85.652208 377.588275 C 86.442067 380.837979 87.796110 385.426682 89.924967 390.684884 L 77.076600 400.321159 C 73.556084 387.284735 73.149879 374.082812 73.759194 363.513745 Z M 16.663696 88.116359 L 16.663696 69.505792 L 59.105436 69.505792 C 60.519659 72.823198 62.136988 76.057857 64.168053 79.096932 C 67.538119 84.152017 69.320939 90.042113 69.320939 96.120253 L 69.320939 114.640572 L 84.365866 114.640572 L 84.365866 96.120268 C 84.365866 94.758702 84.185327 93.419703 84.072490 92.073183 L 89.669203 92.073183 C 99.952410 92.073183 110.198006 93.352001 120.135181 95.864504 L 120.232973 95.480858 L 128.349711 107.652204 L 110.528995 143.301157 L 43.955192 124.276847 C 27.879690 119.695674 16.663696 104.823755 16.663696 88.116359 Z M 54.276013 45.652050 L 54.276013 46.434386 C 54.276013 49.134950 54.501687 51.812947 54.862765 54.460854 L 16.663696 54.460854 L 16.663696 39.415928 L 54.614524 39.415928 C 54.403896 41.477080 54.276013 43.553287 54.276013 45.652050 Z M 16.663696 16.848548 L 61.821042 16.848548 C 60.459476 19.270782 59.270927 21.783284 58.270439 24.371012 L 16.663696 24.371012 L 16.663696 16.848548 Z M 302.517302 16.848548 L 302.517302 73.402429 C 290.865006 62.066077 278.234791 51.828004 264.769580 42.861228 C 264.340800 33.608598 261.805730 24.762182 257.359954 16.856072 L 302.517302 16.848548 L 302.517302 16.848548 Z M 167.112963 92.073182 L 152.068036 92.073182 L 152.068036 77.028255 L 167.112963 77.028255 L 167.112963 92.073182 Z" transform="scale(1.000000,1.000000) translate(67.000000,15.000000)" fill="url(#105553203922816105553131540640)" opacity="1.000000"></path>
        <path d="M 1.239810 23.145149 L 1.239810 97.241199 L 28.305450 97.241199 Q 35.509233 97.241199 40.191692 95.594620 Q 44.874150 93.948041 47.601297 91.066528 Q 50.328443 88.185015 51.409010 84.428757 Q 52.489578 80.672499 52.489578 76.556052 Q 52.489578 70.381381 49.968254 66.367845 Q 47.446930 62.354309 43.433394 60.038807 Q 39.419858 57.723306 34.325754 56.797105 Q 29.231651 55.870905 24.086092 55.870905 L 8.237770 55.870905 L 8.237770 23.145149 Z M 24.291914 61.839753 Q 29.231651 61.839753 33.142276 62.457220 Q 37.052901 63.074687 39.780047 64.772722 Q 42.507193 66.470756 43.999405 69.403725 Q 45.491617 72.336693 45.491617 77.070608 Q 45.491617 84.068568 40.912070 87.670459 Q 36.332522 91.272350 26.350138 91.272350 L 8.237770 91.272350 L 8.237770 61.839753 Z M 102.092766 53.503947 Q 102.092766 57.414572 101.012199 60.862097 Q 99.931632 64.309621 97.821952 66.830945 Q 95.712273 69.352269 92.522027 70.844481 Q 89.331780 72.336693 85.215333 72.336693 Q 81.098886 72.336693 77.960095 70.793026 Q 74.821304 69.249358 72.608713 66.676578 Q 70.396123 64.103799 69.058278 60.707730 Q 67.720432 57.311661 67.308788 53.503947 Z M 67.308788 48.358388 Q 67.308788 44.036119 68.440811 40.176950 Q 69.572834 36.317780 71.785424 33.487723 Q 73.998014 30.657665 77.394083 28.959631 Q 80.790152 27.261597 85.215333 27.261597 Q 91.287092 27.261597 95.609362 30.451843 Q 99.931632 33.642090 101.372388 39.508027 L 108.267437 39.508027 Q 107.135414 35.700313 105.283013 32.458611 Q 103.430612 29.216909 100.652010 26.798496 Q 97.873408 24.380084 94.065694 23.042238 Q 90.257981 21.704393 85.215333 21.704393 Q 78.834840 21.704393 74.203837 23.865528 Q 69.572834 26.026662 66.588409 29.782920 Q 63.603985 33.539179 62.163229 38.633282 Q 60.722472 43.727385 60.722472 49.593323 Q 60.722472 55.459260 62.420507 60.604819 Q 64.118541 65.750378 67.257332 69.609547 Q 70.396123 73.468716 74.924215 75.681307 Q 79.452307 77.893897 85.215333 77.893897 Q 96.226829 77.893897 102.504411 70.329925 Q 108.781993 62.765954 108.679082 48.358388 Z M 127.203094 23.145149 L 121.028423 23.145149 L 121.028423 76.453141 L 127.203094 76.453141 L 127.203094 66.470756 L 127.408917 66.470756 Q 129.981696 72.851249 134.046688 75.372573 Q 138.111679 77.893897 144.800906 77.893897 L 144.800906 71.204670 Q 139.552436 71.307582 136.156367 69.558091 Q 132.760298 67.808601 130.753530 64.824177 Q 128.746762 61.839753 127.974928 57.774761 Q 127.203094 53.709770 127.203094 49.284589 Z M 158.591004 39.816760 Q 160.031761 32.921711 163.788019 30.091654 Q 167.544277 27.261597 174.542237 27.261597 Q 177.938306 27.261597 180.408174 28.084886 Q 182.878043 28.908175 184.473166 30.297476 Q 186.068289 31.686777 186.891579 33.436267 Q 187.714868 35.185757 187.714868 37.141070 Q 187.714868 41.051695 185.193544 42.955551 Q 182.672220 44.859408 178.864507 45.939976 Q 175.056793 47.020543 170.631612 47.792377 Q 166.206431 48.564211 162.398718 50.107878 Q 158.591004 51.651546 156.069680 54.533059 Q 153.548356 57.414572 153.548356 62.663042 Q 153.548356 69.352269 158.436637 73.623083 Q 163.324918 77.893897 172.278191 77.893897 Q 180.922730 77.893897 186.325567 74.034728 Q 191.728404 70.175559 192.860427 61.119375 L 186.582845 61.119375 Q 185.759556 67.294046 181.900386 69.815369 Q 178.041217 72.336693 172.175280 72.336693 Q 166.309343 72.336693 163.222007 69.815369 Q 160.134672 67.294046 160.134672 63.177598 Q 160.134672 59.575707 162.655996 57.671850 Q 165.177320 55.767993 168.985033 54.584515 Q 172.792747 53.401036 177.217928 52.474836 Q 181.643108 51.548635 185.450822 49.850601 Q 189.258536 48.152566 191.779860 45.271053 Q 194.301184 42.389540 194.301184 37.243981 Q 194.301184 33.436267 192.654605 30.503299 Q 191.008026 27.570330 188.126513 25.615018 Q 185.245000 23.659705 181.282919 22.682049 Q 177.320839 21.704393 172.586925 21.704393 Q 167.853010 21.704393 164.199663 23.093694 Q 160.546317 24.482995 157.973537 26.952863 Q 155.400758 29.422731 153.960001 32.715889 Q 152.519244 36.009047 152.313422 39.816760 Z M 227.644406 21.704393 Q 222.498847 21.807304 218.022210 23.556794 Q 213.545574 25.306284 210.200961 28.805264 Q 206.856347 32.304244 204.901035 37.552715 Q 202.945723 42.801185 202.945723 49.799145 Q 202.945723 55.665082 204.489390 60.759186 Q 206.033058 65.853289 209.120393 69.661003 Q 212.207729 73.468716 216.838732 75.681307 Q 221.469735 77.893897 227.644406 77.893897 Q 233.921988 77.893897 238.552991 75.681307 Q 243.183994 73.468716 246.271329 69.712458 Q 249.358665 65.956200 250.850877 60.810641 Q 252.343089 55.665082 252.343089 49.799145 Q 252.343089 43.418652 250.593599 38.273093 Q 248.844109 33.127534 245.602407 29.422731 Q 242.360705 25.717929 237.781157 23.711161 Q 233.201610 21.704393 227.644406 21.704393 Z M 245.756773 49.799145 Q 245.756773 54.533059 244.727662 58.649506 Q 243.698550 62.765954 241.537415 65.801833 Q 239.376280 68.837713 235.980211 70.587203 Q 232.584142 72.336693 227.644406 72.336693 Q 222.807580 72.336693 219.360056 70.432837 Q 215.912531 68.528980 213.751397 65.390189 Q 211.590262 62.251398 210.561150 58.186406 Q 209.532038 54.121414 209.532038 49.799145 Q 209.532038 44.859408 210.715517 40.691506 Q 211.898995 36.523603 214.163041 33.539179 Q 216.427087 30.554754 219.823156 28.908175 Q 223.219225 27.261597 227.644406 27.261597 Q 232.481231 27.261597 235.928756 29.165453 Q 239.376280 31.069310 241.537415 34.259557 Q 243.698550 37.449803 244.727662 41.463339 Q 245.756773 45.476875 245.756773 49.799145 Z M 269.837990 23.145149 L 263.663319 23.145149 L 263.663319 76.453141 L 269.837990 76.453141 L 269.837990 69.043536 Q 273.542792 72.954160 277.504872 75.424029 Q 281.466953 77.893897 287.024157 77.893897 Q 291.963893 77.893897 296.183252 76.195863 Q 300.402610 74.497828 303.284123 70.278470 Q 305.239435 67.396957 305.599625 64.361077 Q 305.959814 61.325197 305.959814 58.032039 L 305.959814 23.145149 L 299.785143 23.145149 L 299.785143 57.929128 Q 299.785143 65.132911 296.594896 68.734802 Q 293.404650 72.336693 285.995045 72.336693 Q 283.113532 72.336693 280.746575 71.461948 Q 278.379617 70.587203 276.475761 69.146447 Q 274.571904 67.705690 273.234058 65.853289 Q 271.896213 64.000888 271.175835 61.942664 Q 270.249634 59.369885 270.043812 57.002928 Q 269.837990 54.635970 269.837990 51.857369 Z M 355.768825 51.136990 Q 351.858200 49.490411 347.844664 48.975856 Q 343.831128 48.461300 339.817592 48.152566 Q 332.716720 47.638010 328.754640 44.962319 Q 324.792560 42.286629 324.792560 36.832336 Q 324.792560 34.362468 325.770216 32.561522 Q 326.747872 30.760577 328.342995 29.577098 Q 329.938119 28.393620 332.047798 27.827608 Q 334.157477 27.261597 336.318612 27.261597 Q 340.023414 27.261597 343.522394 28.187797 Q 347.021374 29.113998 349.748521 31.017855 Q 352.475667 32.921711 354.122246 35.854680 Q 355.768825 38.787649 355.768825 42.801185 Z M 345.374796 54.224326 Q 347.124286 54.430148 349.542698 54.841793 Q 351.961111 55.253437 353.504779 55.973816 Q 355.048446 56.694194 355.408636 58.392228 Q 355.768825 60.090263 355.768825 61.531019 Q 355.768825 66.264934 352.732945 69.300814 Q 349.697065 72.336693 342.493283 72.336693 Q 339.303036 72.336693 336.627345 71.770682 Q 333.951655 71.204670 331.944887 69.815369 Q 329.938119 68.426068 328.651729 66.110567 Q 327.365339 63.795065 326.953694 60.296085 L 320.676112 60.296085 Q 320.984846 65.030000 322.837247 68.374613 Q 324.689648 71.719226 327.622617 73.828905 Q 330.555586 75.938585 334.414755 76.916241 Q 338.273924 77.893897 342.596194 77.893897 Q 346.609730 77.893897 350.160165 77.019152 Q 353.710601 76.144407 356.334836 74.240550 Q 358.959071 72.336693 360.451283 69.146447 Q 361.943496 65.956200 361.943496 61.325197 L 361.943496 32.304244 Q 361.943496 28.702353 363.229885 27.724697 Q 364.516275 26.747041 368.426900 28.187797 L 368.426900 23.350972 Q 367.706522 23.145149 366.317221 22.733505 Q 364.927920 22.321860 363.590074 22.321860 Q 362.149318 22.321860 360.811473 22.630593 Q 359.267805 22.836416 358.341604 23.608250 Q 357.415404 24.380084 356.849392 25.460651 Q 356.283381 26.541218 356.077558 27.827608 Q 355.871736 29.113998 355.871736 30.554754 Q 351.961111 26.232485 346.918463 23.968439 Q 341.875815 21.704393 336.009878 21.704393 Q 332.510898 21.704393 329.269196 22.630593 Q 326.027494 23.556794 323.557625 25.512106 Q 321.087757 27.467419 319.647001 30.297476 Q 318.206244 33.127534 318.206244 37.038159 Q 318.206244 50.622434 336.833168 53.092303 Z M 379.026751 23.145149 L 379.026751 97.241199 L 385.201422 97.241199 L 385.201422 23.145149 Z M 430.893986 23.145149 L 430.893986 97.241199 L 437.891946 97.241199 L 437.891946 58.855329 L 475.866172 97.241199 L 483.790332 97.241199 L 454.563557 67.705690 L 488.935891 23.145149 L 480.394264 23.145149 L 449.520910 63.383421 L 437.891946 51.754457 L 437.891946 23.145149 Z M 504.372568 23.145149 L 498.197898 23.145149 L 498.197898 76.453141 L 504.372568 76.453141 L 504.372568 69.043536 Q 508.077371 72.954160 512.039451 75.424029 Q 516.001532 77.893897 521.558735 77.893897 Q 526.498472 77.893897 530.717830 76.195863 Q 534.937189 74.497828 537.818702 70.278470 Q 539.774014 67.396957 540.134203 64.361077 Q 540.494393 61.325197 540.494393 58.032039 L 540.494393 23.145149 L 534.319722 23.145149 L 534.319722 57.929128 Q 534.319722 65.132911 531.129475 68.734802 Q 527.939229 72.336693 520.529624 72.336693 Q 517.648111 72.336693 515.281154 71.461948 Q 512.914196 70.587203 511.010340 69.146447 Q 509.106483 67.705690 507.768637 65.853289 Q 506.430792 64.000888 505.710414 61.942664 Q 504.784213 59.369885 504.578391 57.002928 Q 504.372568 54.635970 504.372568 51.857369 Z M 576.616217 21.704393 Q 571.470658 21.807304 566.994021 23.556794 Q 562.517385 25.306284 559.172772 28.805264 Q 555.828158 32.304244 553.872846 37.552715 Q 551.917534 42.801185 551.917534 49.799145 Q 551.917534 55.665082 553.461201 60.759186 Q 555.004869 65.853289 558.092204 69.661003 Q 561.179540 73.468716 565.810543 75.681307 Q 570.441546 77.893897 576.616217 77.893897 Q 582.893799 77.893897 587.524802 75.681307 Q 592.155805 73.468716 595.243140 69.712458 Q 598.330476 65.956200 599.822688 60.810641 Q 601.314900 55.665082 601.314900 49.799145 Q 601.314900 43.418652 599.565410 38.273093 Q 597.815920 33.127534 594.574218 29.422731 Q 591.332515 25.717929 586.752968 23.711161 Q 582.173420 21.704393 576.616217 21.704393 Z M 594.728584 49.799145 Q 594.728584 54.533059 593.699473 58.649506 Q 592.670361 62.765954 590.509226 65.801833 Q 588.348091 68.837713 584.952022 70.587203 Q 581.555953 72.336693 576.616217 72.336693 Q 571.779391 72.336693 568.331867 70.432837 Q 564.884342 68.528980 562.723207 65.390189 Q 560.562073 62.251398 559.532961 58.186406 Q 558.503849 54.121414 558.503849 49.799145 Q 558.503849 44.859408 559.687328 40.691506 Q 560.870806 36.523603 563.134852 33.539179 Q 565.398898 30.554754 568.794967 28.908175 Q 572.191036 27.261597 576.616217 27.261597 Q 581.453042 27.261597 584.900567 29.165453 Q 588.348091 31.069310 590.509226 34.259557 Q 592.670361 37.449803 593.699473 41.463339 Q 594.728584 45.476875 594.728584 49.799145 Z M 657.710226 31.378044 L 671.706147 76.453141 L 677.983729 76.453141 L 660.694651 23.145149 L 654.108335 23.145149 L 642.479372 67.911513 L 642.273549 67.911513 L 630.438764 23.145149 L 623.029159 23.145149 L 606.769192 76.453141 L 612.943863 76.453141 L 626.733961 30.966399 L 639.083303 76.453141 L 645.978352 76.453141 Z M 687.863202 23.145149 L 687.863202 97.241199 L 694.037873 97.241199 L 694.037873 23.145149 Z M 748.374976 53.503947 Q 748.374976 57.414572 747.294408 60.862097 Q 746.213841 64.309621 744.104162 66.830945 Q 741.994483 69.352269 738.804236 70.844481 Q 735.613990 72.336693 731.497542 72.336693 Q 727.381095 72.336693 724.242304 70.793026 Q 721.103513 69.249358 718.890923 66.676578 Q 716.678332 64.103799 715.340487 60.707730 Q 714.002642 57.311661 713.590997 53.503947 Z M 713.590997 48.358388 Q 713.590997 44.036119 714.723020 40.176950 Q 715.855043 36.317780 718.067633 33.487723 Q 720.280224 30.657665 723.676293 28.959631 Q 727.072362 27.261597 731.497542 27.261597 Q 737.569302 27.261597 741.891572 30.451843 Q 746.213841 33.642090 747.654598 39.508027 L 754.549647 39.508027 Q 753.417624 35.700313 751.565222 32.458611 Q 749.712821 29.216909 746.934219 26.798496 Q 744.155618 24.380084 740.347904 23.042238 Q 736.540190 21.704393 731.497542 21.704393 Q 725.117049 21.704393 720.486046 23.865528 Q 715.855043 26.026662 712.870619 29.782920 Q 709.886195 33.539179 708.445438 38.633282 Q 707.004682 43.727385 707.004682 49.593323 Q 707.004682 55.459260 708.702716 60.604819 Q 710.400751 65.750378 713.539542 69.609547 Q 716.678332 73.468716 721.206424 75.681307 Q 725.734516 77.893897 731.497542 77.893897 Q 742.509039 77.893897 748.786621 70.329925 Q 755.064203 62.765954 754.961291 48.358388 Z M 808.166371 50.004967 Q 808.166371 54.533059 806.931437 58.598051 Q 805.696503 62.663042 803.381002 65.698922 Q 801.065500 68.734802 797.720887 70.535748 Q 794.376273 72.336693 790.156915 72.336693 Q 785.320089 72.336693 781.821109 70.432837 Q 778.322129 68.528980 776.058083 65.235822 Q 773.794037 61.942664 772.764926 57.568939 Q 771.735814 53.195214 771.941636 48.152566 Q 771.941636 43.109918 773.330937 39.250749 Q 774.720238 35.391580 777.190106 32.715889 Q 779.659975 30.040198 782.953132 28.650897 Q 786.246290 27.261597 790.156915 27.261597 Q 794.479184 27.261597 797.875253 29.011087 Q 801.271322 30.760577 803.535368 33.796456 Q 805.799414 36.832336 806.982893 41.000239 Q 808.166371 45.168142 808.166371 50.004967 Z M 808.166371 97.241199 L 814.341042 97.241199 L 814.341042 23.145149 L 808.166371 23.145149 L 808.166371 32.510067 L 807.960549 32.510067 Q 806.622704 29.834376 804.513024 27.827608 Q 802.403345 25.820840 799.882021 24.482995 Q 797.360697 23.145149 794.685007 22.424771 Q 792.009316 21.704393 789.436537 21.704393 Q 782.953132 21.704393 778.425040 23.865528 Q 773.896948 26.026662 770.963980 29.782920 Q 768.031011 33.539179 766.693166 38.684738 Q 765.355321 43.830297 765.355321 49.696234 Q 765.355321 55.253437 766.796077 60.398996 Q 768.236834 65.544555 771.169802 69.403725 Q 774.102771 73.262894 778.579407 75.578395 Q 783.056043 77.893897 789.127803 77.893897 Q 794.787918 77.893897 799.984933 75.372573 Q 805.181947 72.851249 808.166371 67.911513 Z M 871.045102 49.593323 Q 871.045102 54.430148 869.861624 58.598051 Q 868.678145 62.765954 866.414099 65.801833 Q 864.150053 68.837713 860.753984 70.587203 Q 857.357915 72.336693 853.035646 72.336693 Q 849.125021 72.336693 845.831863 70.947392 Q 842.538705 69.558091 840.068837 66.882401 Q 837.598969 64.206710 836.209668 60.347541 Q 834.820367 56.488372 834.820367 51.445724 Q 834.614545 46.403076 835.643656 42.029351 Q 836.672768 37.655626 838.936814 34.362468 Q 841.200860 31.069310 844.699840 29.165453 Q 848.198820 27.261597 853.035646 27.261597 Q 857.255004 27.261597 860.599618 29.062542 Q 863.944231 30.863488 866.259732 33.899368 Q 868.575234 36.935247 869.810168 41.000239 Q 871.045102 45.065231 871.045102 49.593323 Z M 871.045102 76.453141 L 877.219773 76.453141 L 877.219773 28.290708 Q 877.219773 22.939327 876.139206 18.051046 Q 875.058638 13.162765 872.280036 9.457962 Q 869.501435 5.753160 864.664609 3.540570 Q 859.827784 1.327979 852.212356 1.327979 Q 846.346419 1.327979 842.127061 2.820191 Q 837.907702 4.312403 835.232012 6.576449 Q 832.556321 8.840495 831.167020 11.567642 Q 829.777719 14.294788 829.674808 16.661745 L 836.261123 16.661745 Q 836.981502 13.677321 838.525169 11.773464 Q 840.068837 9.869607 842.178516 8.789040 Q 844.288196 7.708472 846.860975 7.296828 Q 849.433755 6.885183 852.212356 6.885183 Q 858.489938 6.885183 862.297652 9.046318 Q 866.105366 11.207452 868.060678 14.706433 Q 870.015990 18.205413 870.582002 22.630593 Q 871.148013 27.055774 871.045102 31.686777 Q 868.060678 26.747041 862.863663 24.225717 Q 857.666649 21.704393 852.006534 21.704393 Q 845.934774 21.704393 841.458138 24.019894 Q 836.981502 26.335396 834.048533 30.194565 Q 831.115564 34.053734 829.674808 39.199293 Q 828.234051 44.344852 828.234051 49.902056 Q 828.234051 55.767993 829.571897 60.913552 Q 830.909742 66.059111 833.842711 69.815369 Q 836.775679 73.571627 841.303771 75.732762 Q 845.831863 77.893897 852.315268 77.893897 Q 854.888047 77.893897 857.563738 77.173519 Q 860.239428 76.453141 862.760752 75.115295 Q 865.282076 73.777450 867.391755 71.719226 Q 869.501435 69.661003 870.839280 67.088223 L 871.045102 67.088223 Z M 931.351054 53.503947 Q 931.351054 57.414572 930.270486 60.862097 Q 929.189919 64.309621 927.080240 66.830945 Q 924.970561 69.352269 921.780314 70.844481 Q 918.590067 72.336693 914.473620 72.336693 Q 910.357173 72.336693 907.218382 70.793026 Q 904.079591 69.249358 901.867001 66.676578 Q 899.654410 64.103799 898.316565 60.707730 Q 896.978720 57.311661 896.567075 53.503947 Z M 896.567075 48.358388 Q 896.567075 44.036119 897.699098 40.176950 Q 898.831121 36.317780 901.043711 33.487723 Q 903.256302 30.657665 906.652371 28.959631 Q 910.048439 27.261597 914.473620 27.261597 Q 920.545380 27.261597 924.867649 30.451843 Q 929.189919 33.642090 930.630675 39.508027 L 937.525724 39.508027 Q 936.393701 35.700313 934.541300 32.458611 Q 932.688899 29.216909 929.910297 26.798496 Q 927.131695 24.380084 923.323982 23.042238 Q 919.516268 21.704393 914.473620 21.704393 Q 908.093127 21.704393 903.462124 23.865528 Q 898.831121 26.026662 895.846697 29.782920 Q 892.862272 33.539179 891.421516 38.633282 Q 889.980759 43.727385 889.980759 49.593323 Q 889.980759 55.459260 891.678794 60.604819 Q 893.376828 65.750378 896.515619 69.609547 Q 899.654410 73.468716 904.182502 75.681307 Q 908.710594 77.893897 914.473620 77.893897 Q 925.485116 77.893897 931.762698 70.329925 Q 938.040280 62.765954 937.937369 48.358388 Z M 979.513486 23.145149 L 979.513486 97.241199 L 1004.829636 97.241199 Q 1007.916971 97.241199 1010.901396 97.086832 Q 1013.885820 96.932465 1016.767333 96.366454 Q 1019.648846 95.800442 1022.375992 94.668419 Q 1025.103139 93.536396 1027.675918 91.683995 Q 1031.380721 89.008304 1033.747678 85.149135 Q 1036.114635 81.289966 1037.503936 77.019152 Q 1038.893237 72.748338 1039.459248 68.374613 Q 1040.025260 64.000888 1040.025260 60.296085 Q 1040.025260 56.591283 1039.562159 52.783569 Q 1039.099059 48.975856 1038.069947 45.322509 Q 1037.040835 41.669162 1035.342801 38.324548 Q 1033.644766 34.979935 1031.071987 32.201333 Q 1028.499207 29.319820 1025.463328 27.570330 Q 1022.427448 25.820840 1019.082835 24.843184 Q 1015.738221 23.865528 1012.136330 23.505338 Q 1008.534439 23.145149 1004.829636 23.145149 Z M 986.511446 29.113998 L 1003.285968 29.113998 Q 1008.019883 29.113998 1012.187785 29.680009 Q 1016.355688 30.246021 1020.677958 32.510067 Q 1024.382760 34.362468 1026.749717 37.552715 Q 1029.116675 40.742961 1030.505975 44.499219 Q 1031.895276 48.255477 1032.461288 52.371924 Q 1033.027299 56.488372 1033.027299 60.296085 Q 1033.027299 64.309621 1032.512743 68.477524 Q 1031.998188 72.645427 1030.557431 76.401685 Q 1029.116675 80.157943 1026.646806 83.296734 Q 1024.176938 86.435525 1020.266313 88.493749 Q 1016.973155 90.243239 1012.445063 90.757795 Q 1007.916971 91.272350 1003.285968 91.272350 L 986.511446 91.272350 Z M 1087.776047 51.136990 Q 1083.865422 49.490411 1079.851886 48.975856 Q 1075.838350 48.461300 1071.824814 48.152566 Q 1064.723943 47.638010 1060.761862 44.962319 Q 1056.799782 42.286629 1056.799782 36.832336 Q 1056.799782 34.362468 1057.777438 32.561522 Q 1058.755094 30.760577 1060.350218 29.577098 Q 1061.945341 28.393620 1064.055020 27.827608 Q 1066.164699 27.261597 1068.325834 27.261597 Q 1072.030637 27.261597 1075.529617 28.187797 Q 1079.028597 29.113998 1081.755743 31.017855 Q 1084.482889 32.921711 1086.129468 35.854680 Q 1087.776047 38.787649 1087.776047 42.801185 Z M 1077.382018 54.224326 Q 1079.131508 54.430148 1081.549921 54.841793 Q 1083.968333 55.253437 1085.512001 55.973816 Q 1087.055669 56.694194 1087.415858 58.392228 Q 1087.776047 60.090263 1087.776047 61.531019 Q 1087.776047 66.264934 1084.740167 69.300814 Q 1081.704287 72.336693 1074.500505 72.336693 Q 1071.310258 72.336693 1068.634568 71.770682 Q 1065.958877 71.204670 1063.952109 69.815369 Q 1061.945341 68.426068 1060.658951 66.110567 Q 1059.372561 63.795065 1058.960917 60.296085 L 1052.683335 60.296085 Q 1052.992068 65.030000 1054.844470 68.374613 Q 1056.696871 71.719226 1059.629839 73.828905 Q 1062.562808 75.938585 1066.421977 76.916241 Q 1070.281146 77.893897 1074.603416 77.893897 Q 1078.616952 77.893897 1082.167388 77.019152 Q 1085.717823 76.144407 1088.342059 74.240550 Q 1090.966294 72.336693 1092.458506 69.146447 Q 1093.950718 65.956200 1093.950718 61.325197 L 1093.950718 32.304244 Q 1093.950718 28.702353 1095.237108 27.724697 Q 1096.523497 26.747041 1100.434122 28.187797 L 1100.434122 23.350972 Q 1099.713744 23.145149 1098.324443 22.733505 Q 1096.935142 22.321860 1095.597297 22.321860 Q 1094.156540 22.321860 1092.818695 22.630593 Q 1091.275027 22.836416 1090.348827 23.608250 Q 1089.422626 24.380084 1088.856614 25.460651 Q 1088.290603 26.541218 1088.084781 27.827608 Q 1087.878958 29.113998 1087.878958 30.554754 Q 1083.968333 26.232485 1078.925686 23.968439 Q 1073.883038 21.704393 1068.017101 21.704393 Q 1064.518120 21.704393 1061.276418 22.630593 Q 1058.034716 23.556794 1055.564848 25.512106 Q 1053.094979 27.467419 1051.654223 30.297476 Q 1050.213466 33.127534 1050.213466 37.038159 Q 1050.213466 50.622434 1068.840390 53.092303 Z M 1128.837608 22.939327 Q 1127.705585 22.733505 1125.853184 22.218949 Q 1124.000782 21.704393 1121.736736 21.704393 Q 1117.105733 21.704393 1114.687321 24.019894 Q 1112.268908 26.335396 1112.268908 32.304244 L 1112.268908 71.307582 L 1104.756392 71.307582 L 1104.756392 76.453141 L 1112.268908 76.453141 L 1112.268908 91.272350 L 1118.443579 91.272350 L 1118.443579 76.453141 L 1128.425963 76.453141 L 1128.425963 71.307582 L 1118.443579 71.307582 L 1118.443579 34.774113 Q 1118.443579 32.818800 1118.546490 31.378044 Q 1118.649401 29.937287 1119.163957 29.011087 Q 1119.678513 28.084886 1120.759080 27.673241 Q 1121.839648 27.261597 1123.794960 27.261597 Q 1125.029894 27.261597 1126.316284 27.467419 Q 1127.602674 27.673241 1128.837608 27.981975 Z M 1173.603971 51.136990 Q 1169.693346 49.490411 1165.679810 48.975856 Q 1161.666274 48.461300 1157.652738 48.152566 Q 1150.551867 47.638010 1146.589786 44.962319 Q 1142.627706 42.286629 1142.627706 36.832336 Q 1142.627706 34.362468 1143.605362 32.561522 Q 1144.583018 30.760577 1146.178142 29.577098 Q 1147.773265 28.393620 1149.882944 27.827608 Q 1151.992623 27.261597 1154.153758 27.261597 Q 1157.858561 27.261597 1161.357541 28.187797 Q 1164.856521 29.113998 1167.583667 31.017855 Q 1170.310813 32.921711 1171.957392 35.854680 Q 1173.603971 38.787649 1173.603971 42.801185 Z M 1163.209942 54.224326 Q 1164.959432 54.430148 1167.377845 54.841793 Q 1169.796257 55.253437 1171.339925 55.973816 Q 1172.883593 56.694194 1173.243782 58.392228 Q 1173.603971 60.090263 1173.603971 61.531019 Q 1173.603971 66.264934 1170.568091 69.300814 Q 1167.532211 72.336693 1160.328429 72.336693 Q 1157.138182 72.336693 1154.462492 71.770682 Q 1151.786801 71.204670 1149.780033 69.815369 Q 1147.773265 68.426068 1146.486875 66.110567 Q 1145.200485 63.795065 1144.788841 60.296085 L 1138.511259 60.296085 Q 1138.819992 65.030000 1140.672394 68.374613 Q 1142.524795 71.719226 1145.457763 73.828905 Q 1148.390732 75.938585 1152.249901 76.916241 Q 1156.109070 77.893897 1160.431340 77.893897 Q 1164.444876 77.893897 1167.995312 77.019152 Q 1171.545747 76.144407 1174.169983 74.240550 Q 1176.794218 72.336693 1178.286430 69.146447 Q 1179.778642 65.956200 1179.778642 61.325197 L 1179.778642 32.304244 Q 1179.778642 28.702353 1181.065032 27.724697 Q 1182.351421 26.747041 1186.262046 28.187797 L 1186.262046 23.350972 Q 1185.541668 23.145149 1184.152367 22.733505 Q 1182.763066 22.321860 1181.425221 22.321860 Q 1179.984464 22.321860 1178.646619 22.630593 Q 1177.102951 22.836416 1176.176751 23.608250 Q 1175.250550 24.380084 1174.684538 25.460651 Q 1174.118527 26.541218 1173.912705 27.827608 Q 1173.706882 29.113998 1173.706882 30.554754 Q 1169.796257 26.232485 1164.753610 23.968439 Q 1159.710962 21.704393 1153.845025 21.704393 Q 1150.346044 21.704393 1147.104342 22.630593 Q 1143.862640 23.556794 1141.392772 25.512106 Q 1138.922903 27.467419 1137.482147 30.297476 Q 1136.041390 33.127534 1136.041390 37.038159 Q 1136.041390 50.622434 1154.668314 53.092303 Z M 1202.830746 50.004967 Q 1202.830746 45.168142 1204.014225 41.000239 Q 1205.197703 36.832336 1207.461749 33.796456 Q 1209.725795 30.760577 1213.121864 29.011087 Q 1216.517933 27.261597 1220.840203 27.261597 Q 1224.750827 27.261597 1228.043985 28.650897 Q 1231.337143 30.040198 1233.807011 32.715889 Q 1236.276880 35.391580 1237.666181 39.250749 Q 1239.055481 43.109918 1239.055481 48.152566 Q 1239.261304 53.195214 1238.232192 57.568939 Q 1237.203080 61.942664 1234.939034 65.235822 Q 1232.674988 68.528980 1229.124553 70.432837 Q 1225.574117 72.336693 1220.840203 72.336693 Q 1216.620844 72.336693 1213.276231 70.535748 Q 1209.931618 68.734802 1207.616116 65.698922 Q 1205.300614 62.663042 1204.065680 58.598051 Q 1202.830746 54.533059 1202.830746 50.004967 Z M 1202.830746 23.145149 L 1196.656075 23.145149 L 1196.656075 97.241199 L 1202.830746 97.241199 L 1202.830746 67.911513 Q 1205.815170 72.851249 1211.012185 75.372573 Q 1216.209200 77.893897 1221.869314 77.893897 Q 1227.941074 77.893897 1232.417710 75.578395 Q 1236.894347 73.262894 1239.827315 69.403725 Q 1242.760284 65.544555 1244.201040 60.398996 Q 1245.641797 55.253437 1245.641797 49.696234 Q 1245.641797 43.830297 1244.303952 38.684738 Q 1242.966106 33.539179 1240.033138 29.782920 Q 1237.100169 26.026662 1232.572077 23.865528 Q 1228.043985 21.704393 1221.560581 21.704393 Q 1218.987801 21.704393 1216.312111 22.424771 Q 1213.636420 23.145149 1211.115096 24.482995 Q 1208.593772 25.820840 1206.484093 27.827608 Q 1204.374414 29.834376 1203.036569 32.510067 L 1202.830746 32.510067 Z M 1293.701318 51.136990 Q 1289.790693 49.490411 1285.777157 48.975856 Q 1281.763621 48.461300 1277.750085 48.152566 Q 1270.649214 47.638010 1266.687133 44.962319 Q 1262.725053 42.286629 1262.725053 36.832336 Q 1262.725053 34.362468 1263.702709 32.561522 Q 1264.680365 30.760577 1266.275489 29.577098 Q 1267.870612 28.393620 1269.980291 27.827608 Q 1272.089970 27.261597 1274.251105 27.261597 Q 1277.955907 27.261597 1281.454888 28.187797 Q 1284.953868 29.113998 1287.681014 31.017855 Q 1290.408160 32.921711 1292.054739 35.854680 Q 1293.701318 38.787649 1293.701318 42.801185 Z M 1283.307289 54.224326 Q 1285.056779 54.430148 1287.475192 54.841793 Q 1289.893604 55.253437 1291.437272 55.973816 Q 1292.980940 56.694194 1293.341129 58.392228 Q 1293.701318 60.090263 1293.701318 61.531019 Q 1293.701318 66.264934 1290.665438 69.300814 Q 1287.629558 72.336693 1280.425776 72.336693 Q 1277.235529 72.336693 1274.559839 71.770682 Q 1271.884148 71.204670 1269.877380 69.815369 Q 1267.870612 68.426068 1266.584222 66.110567 Q 1265.297832 63.795065 1264.886188 60.296085 L 1258.608606 60.296085 Q 1258.917339 65.030000 1260.769740 68.374613 Q 1262.622142 71.719226 1265.555110 73.828905 Q 1268.488079 75.938585 1272.347248 76.916241 Q 1276.206417 77.893897 1280.528687 77.893897 Q 1284.542223 77.893897 1288.092659 77.019152 Q 1291.643094 76.144407 1294.267329 74.240550 Q 1296.891565 72.336693 1298.383777 69.146447 Q 1299.875989 65.956200 1299.875989 61.325197 L 1299.875989 32.304244 Q 1299.875989 28.702353 1301.162379 27.724697 Q 1302.448768 26.747041 1306.359393 28.187797 L 1306.359393 23.350972 Q 1305.639015 23.145149 1304.249714 22.733505 Q 1302.860413 22.321860 1301.522568 22.321860 Q 1300.081811 22.321860 1298.743966 22.630593 Q 1297.200298 22.836416 1296.274097 23.608250 Q 1295.347897 24.380084 1294.781885 25.460651 Q 1294.215874 26.541218 1294.010052 27.827608 Q 1293.804229 29.113998 1293.804229 30.554754 Q 1289.893604 26.232485 1284.850956 23.968439 Q 1279.808309 21.704393 1273.942371 21.704393 Q 1270.443391 21.704393 1267.201689 22.630593 Q 1263.959987 23.556794 1261.490119 25.512106 Q 1259.020250 27.467419 1257.579494 30.297476 Q 1256.138737 33.127534 1256.138737 37.038159 Q 1256.138737 50.622434 1274.765661 53.092303 Z M 1319.634935 39.816760 Q 1321.075692 32.921711 1324.831950 30.091654 Q 1328.588208 27.261597 1335.586168 27.261597 Q 1338.982237 27.261597 1341.452105 28.084886 Q 1343.921974 28.908175 1345.517097 30.297476 Q 1347.112220 31.686777 1347.935510 33.436267 Q 1348.758799 35.185757 1348.758799 37.141070 Q 1348.758799 41.051695 1346.237475 42.955551 Q 1343.716151 44.859408 1339.908438 45.939976 Q 1336.100724 47.020543 1331.675543 47.792377 Q 1327.250363 48.564211 1323.442649 50.107878 Q 1319.634935 51.651546 1317.113611 54.533059 Q 1314.592287 57.414572 1314.592287 62.663042 Q 1314.592287 69.352269 1319.480569 73.623083 Q 1324.368850 77.893897 1333.322122 77.893897 Q 1341.966661 77.893897 1347.369498 74.034728 Q 1352.772335 70.175559 1353.904358 61.119375 L 1347.626776 61.119375 Q 1346.803487 67.294046 1342.944318 69.815369 Q 1339.085148 72.336693 1333.219211 72.336693 Q 1327.353274 72.336693 1324.265938 69.815369 Q 1321.178603 67.294046 1321.178603 63.177598 Q 1321.178603 59.575707 1323.699927 57.671850 Q 1326.221251 55.767993 1330.028964 54.584515 Q 1333.836678 53.401036 1338.261859 52.474836 Q 1342.687040 51.548635 1346.494753 49.850601 Q 1350.302467 48.152566 1352.823791 45.271053 Q 1355.345115 42.389540 1355.345115 37.243981 Q 1355.345115 33.436267 1353.698536 30.503299 Q 1352.051957 27.570330 1349.170444 25.615018 Q 1346.288931 23.659705 1342.326850 22.682049 Q 1338.364770 21.704393 1333.630856 21.704393 Q 1328.896941 21.704393 1325.243595 23.093694 Q 1321.590248 24.482995 1319.017468 26.952863 Q 1316.444689 29.422731 1315.003932 32.715889 Q 1313.563176 36.009047 1313.357353 39.816760 Z M 1406.080326 53.503947 Q 1406.080326 57.414572 1404.999759 60.862097 Q 1403.919192 64.309621 1401.809512 66.830945 Q 1399.699833 69.352269 1396.509587 70.844481 Q 1393.319340 72.336693 1389.202893 72.336693 Q 1385.086446 72.336693 1381.947655 70.793026 Q 1378.808864 69.249358 1376.596273 66.676578 Q 1374.383683 64.103799 1373.045838 60.707730 Q 1371.707992 57.311661 1371.296348 53.503947 Z M 1371.296348 48.358388 Q 1371.296348 44.036119 1372.428371 40.176950 Q 1373.560394 36.317780 1375.772984 33.487723 Q 1377.985574 30.657665 1381.381643 28.959631 Q 1384.777712 27.261597 1389.202893 27.261597 Q 1395.274652 27.261597 1399.596922 30.451843 Q 1403.919192 33.642090 1405.359948 39.508027 L 1412.254997 39.508027 Q 1411.122974 35.700313 1409.270573 32.458611 Q 1407.418172 29.216909 1404.639570 26.798496 Q 1401.860968 24.380084 1398.053254 23.042238 Q 1394.245541 21.704393 1389.202893 21.704393 Q 1382.822400 21.704393 1378.191397 23.865528 Q 1373.560394 26.026662 1370.575969 29.782920 Q 1367.591545 33.539179 1366.150789 38.633282 Q 1364.710032 43.727385 1364.710032 49.593323 Q 1364.710032 55.459260 1366.408067 60.604819 Q 1368.106101 65.750378 1371.244892 69.609547 Q 1374.383683 73.468716 1378.911775 75.681307 Q 1383.439867 77.893897 1389.202893 77.893897 Q 1400.214389 77.893897 1406.491971 70.329925 Q 1412.769553 62.765954 1412.666642 48.358388 Z" transform="scale(1.000000,1.000000) translate(470.000000,36.000000)" fill="url(#105553203931936105553131544896)" opacity="1.000000"></path>
        <path d="M 178.393832 210.728235 L 159.734739 210.728235 L 159.734739 145.849369 Q 149.634863 151.840821 130.633401 156.120430 Q 112.830229 160.228854 99.820219 160.228854 Q 68.493484 160.228854 47.266626 149.101872 Q 35.283722 142.768051 35.283722 132.496991 Q 35.283722 118.802243 49.663207 118.802243 Q 58.393608 118.802243 72.430724 123.937774 Q 81.503494 127.190276 95.711795 132.154622 Q 101.703247 134.208834 116.938653 134.208834 Q 146.553544 134.208834 161.104213 115.892110 Q 168.122771 107.161708 168.122771 95.349989 Q 168.122771 68.131678 133.885903 52.553903 Q 119.677603 46.048898 106.838777 45.192976 Q 119.164050 32.867704 130.291032 32.867704 Q 133.885903 32.867704 137.994327 33.894810 L 155.283946 5.649393 Q 149.977231 1.027416 133.543534 1.027416 Q 120.191156 1.027416 110.947201 10.100186 Q 105.982855 15.064532 96.910085 30.813492 Q 89.206790 44.337055 84.071260 44.508239 Q 52.402156 45.364161 35.283722 55.977590 Q 24.499108 62.653779 24.499108 74.294314 Q 24.499108 88.673799 41.617543 88.673799 Q 47.951363 88.673799 68.065524 78.830699 Q 88.179684 68.987600 101.189694 68.987600 Q 127.209714 68.987600 149.977231 81.312872 Q 161.104213 87.304324 161.104213 96.034726 Q 161.104213 109.044736 140.562092 109.044736 Q 134.228272 109.044736 99.649035 99.800781 Q 79.278098 94.322882 74.656121 94.322882 Q 47.437810 94.322882 29.805823 120.000534 Q 21.246606 132.325806 21.246606 146.534107 Q 21.075422 175.464261 60.790189 185.564137 Q 77.052701 189.672561 91.432186 189.672561 Q 107.865883 189.672561 137.994327 181.626897 L 137.994327 210.728235 L 1.731591 210.728235 L 1.731591 231.270356 L 178.393832 231.270356 Z M 343.929091 210.728235 L 229.920319 210.728235 L 229.920319 183.338740 Q 230.605056 183.338740 231.289794 182.654003 Q 231.974531 181.969266 232.488084 181.969266 Q 231.118609 181.969266 230.947425 182.140450 Q 230.947425 182.996372 256.453892 187.618349 Q 265.869031 189.330192 275.112985 189.330192 Q 313.629462 189.330192 324.585260 167.760965 Q 331.946187 153.381480 331.946187 109.729473 L 331.946187 43.823502 Q 328.351316 45.192976 304.727876 54.950484 Q 304.727876 60.428383 302.502480 61.969042 Q 293.429710 56.662327 287.609442 53.923378 Q 269.121533 45.192976 244.642172 45.192976 Q 210.918857 45.192976 192.602132 66.419835 Q 183.700547 76.690895 183.700547 89.358537 Q 183.700547 103.566837 197.737663 117.603953 Q 224.955973 144.822263 265.355478 144.822263 Q 289.834839 144.822263 304.727876 133.524097 L 304.727876 149.273056 Q 297.195765 158.859379 290.091615 162.111882 Q 282.987465 165.364384 270.662192 165.022016 Q 243.101513 164.508463 220.162811 154.922140 Q 209.891751 150.642531 200.134243 147.218844 L 200.134243 159.886485 Q 202.359640 161.769513 206.639248 165.535569 Q 207.323986 166.391490 207.495170 166.562675 L 207.495170 210.728235 L 172.402380 210.728235 L 172.402380 231.270356 L 343.929091 231.270356 Z M 304.727876 102.368547 Q 304.727876 109.900658 286.753520 115.892110 Q 271.860483 120.856455 261.931791 120.856455 Q 225.811895 120.856455 204.071483 94.836435 Q 195.341082 84.394191 195.341082 77.718001 Q 198.935953 65.221544 223.586498 65.221544 Q 255.426786 65.221544 281.789175 81.141688 Q 304.727876 95.007620 304.727876 102.368547 Z M 514.599880 210.728235 L 341.532510 210.728235 L 341.532510 231.270356 L 514.599880 231.270356 Z M 500.391579 149.273056 Q 500.391579 139.173180 488.237491 126.505539 Q 477.966430 115.720925 466.668264 110.414211 L 440.990613 139.515549 Q 452.631148 140.542655 463.073393 148.074766 Q 475.056297 156.633983 475.056297 167.589781 Q 475.056297 173.410048 467.524186 177.518473 Q 461.019181 181.284528 454.685360 181.284528 Q 441.504166 181.284528 426.439944 168.616887 Q 395.797946 142.939236 395.797946 111.783685 L 395.797946 39.201524 L 362.930553 56.319959 L 362.930553 182.996372 L 396.140315 182.996372 L 396.140315 169.986362 Q 403.501242 177.347288 426.611128 185.392952 Q 437.909294 189.330192 449.892198 189.330192 Q 474.713928 189.330192 492.003547 170.328730 Q 500.391579 161.084776 500.391579 149.273056 Z M 678.765664 210.728235 L 564.756892 210.728235 L 564.756892 183.338740 Q 565.441629 183.338740 566.126367 182.654003 Q 566.811104 181.969266 567.324657 181.969266 Q 565.955182 181.969266 565.783998 182.140450 Q 565.783998 182.996372 591.290465 187.618349 Q 600.705604 189.330192 609.949558 189.330192 Q 648.466035 189.330192 659.421833 167.760965 Q 666.782760 153.381480 666.782760 109.729473 L 666.782760 43.823502 Q 663.187889 45.192976 639.564449 54.950484 Q 639.564449 60.428383 637.339053 61.969042 Q 628.266283 56.662327 622.446015 53.923378 Q 603.958106 45.192976 579.478745 45.192976 Q 545.755430 45.192976 527.438705 66.419835 Q 518.537120 76.690895 518.537120 89.358537 Q 518.537120 103.566837 532.574236 117.603953 Q 559.792546 144.822263 600.192051 144.822263 Q 624.671412 144.822263 639.564449 133.524097 L 639.564449 149.273056 Q 632.032338 158.859379 624.928188 162.111882 Q 617.824038 165.364384 605.498765 165.022016 Q 577.938086 164.508463 554.999384 154.922140 Q 544.728324 150.642531 534.970816 147.218844 L 534.970816 159.886485 Q 537.196213 161.769513 541.475821 165.535569 Q 542.160559 166.391490 542.331743 166.562675 L 542.331743 210.728235 L 507.238953 210.728235 L 507.238953 231.270356 L 678.765664 231.270356 Z M 639.564449 102.368547 Q 639.564449 109.900658 621.590093 115.892110 Q 606.697056 120.856455 596.768364 120.856455 Q 560.648468 120.856455 538.908056 94.836435 Q 530.177655 84.394191 530.177655 77.718001 Q 533.772526 65.221544 558.423071 65.221544 Q 590.263359 65.221544 616.625747 81.141688 Q 639.564449 95.007620 639.564449 102.368547 Z M 852.004218 210.728235 L 833.345124 210.728235 L 833.345124 145.849369 Q 823.245248 151.840821 804.243786 156.120430 Q 786.440615 160.228854 773.430605 160.228854 Q 742.103870 160.228854 720.877012 149.101872 Q 708.894108 142.768051 708.894108 132.496991 Q 708.894108 118.802243 723.273593 118.802243 Q 732.003994 118.802243 746.041110 123.937774 Q 755.113880 127.190276 769.322181 132.154622 Q 775.313633 134.208834 790.549039 134.208834 Q 820.163930 134.208834 834.714599 115.892110 Q 841.733157 107.161708 841.733157 95.349989 Q 841.733157 68.131678 807.496289 52.553903 Q 793.287988 46.048898 780.449163 45.192976 Q 792.774435 32.867704 803.901418 32.867704 Q 807.496289 32.867704 811.604713 33.894810 L 828.894332 5.649393 Q 823.587617 1.027416 807.153920 1.027416 Q 793.801541 1.027416 784.557587 10.100186 Q 779.593241 15.064532 770.520471 30.813492 Q 762.817176 44.337055 757.681645 44.508239 Q 726.012542 45.364161 708.894108 55.977590 Q 698.109494 62.653779 698.109494 74.294314 Q 698.109494 88.673799 715.227928 88.673799 Q 721.561749 88.673799 741.675909 78.830699 Q 761.790070 68.987600 774.800080 68.987600 Q 800.820099 68.987600 823.587617 81.312872 Q 834.714599 87.304324 834.714599 96.034726 Q 834.714599 109.044736 814.172478 109.044736 Q 807.838658 109.044736 773.259420 99.800781 Q 752.888484 94.322882 748.266507 94.322882 Q 721.048196 94.322882 703.416209 120.000534 Q 694.856992 132.325806 694.856992 146.534107 Q 694.685807 175.464261 734.400575 185.564137 Q 750.663087 189.672561 765.042572 189.672561 Q 781.476269 189.672561 811.604713 181.626897 L 811.604713 210.728235 L 675.341977 210.728235 L 675.341977 231.270356 L 852.004218 231.270356 Z M 1062.732143 231.270356 L 1062.389774 210.728235 L 1044.928971 210.728235 L 1044.928971 178.032026 Q 1041.847653 171.869389 1030.549486 152.012006 L 969.779045 45.192976 Q 954.543639 45.192976 929.893093 69.329969 Q 902.845967 95.692357 902.845967 127.875013 Q 902.845967 144.308710 913.459397 158.517011 Q 918.252558 165.022016 918.252558 168.274518 Q 918.252558 174.265970 908.152682 174.265970 Q 900.620571 174.265970 893.602013 168.103334 Q 891.034248 165.877937 882.475031 155.949246 L 860.392251 175.977814 Q 871.690417 185.564137 882.475031 187.789533 Q 887.781745 188.987824 896.169778 188.987824 Q 942.560735 189.501377 942.560735 139.515549 Q 942.560735 132.839359 941.105668 119.486981 Q 939.650601 106.134602 939.650601 99.458413 Q 939.650601 72.411287 949.236924 70.014706 Q 954.543639 70.014706 961.733381 83.024716 L 1013.944605 177.347288 L 1013.944605 210.728235 L 847.553425 210.728235 L 847.553425 231.270356 Z M 1235.628328 210.728235 L 1121.619556 210.728235 L 1121.619556 183.338740 Q 1122.304294 183.338740 1122.989031 182.654003 Q 1123.673769 181.969266 1124.187322 181.969266 Q 1122.817847 181.969266 1122.646662 182.140450 Q 1122.646662 182.996372 1148.153129 187.618349 Q 1157.568268 189.330192 1166.812223 189.330192 Q 1205.328700 189.330192 1216.284498 167.760965 Q 1223.645424 153.381480 1223.645424 109.729473 L 1223.645424 43.823502 Q 1220.050553 45.192976 1196.427114 54.950484 Q 1196.427114 60.428383 1194.201717 61.969042 Q 1185.128947 56.662327 1179.308680 53.923378 Q 1160.820771 45.192976 1136.341410 45.192976 Q 1102.618094 45.192976 1084.301370 66.419835 Q 1075.399784 76.690895 1075.399784 89.358537 Q 1075.399784 103.566837 1089.436900 117.603953 Q 1116.655210 144.822263 1157.054715 144.822263 Q 1181.534076 144.822263 1196.427114 133.524097 L 1196.427114 149.273056 Q 1188.895003 158.859379 1181.790853 162.111882 Q 1174.686702 165.364384 1162.361430 165.022016 Q 1134.800751 164.508463 1111.862049 154.922140 Q 1101.590988 150.642531 1091.833481 147.218844 L 1091.833481 159.886485 Q 1094.058877 161.769513 1098.338486 165.535569 Q 1099.023223 166.391490 1099.194408 166.562675 L 1099.194408 210.728235 L 1064.101618 210.728235 L 1064.101618 231.270356 L 1235.628328 231.270356 Z M 1196.427114 102.368547 Q 1196.427114 109.900658 1178.452758 115.892110 Q 1163.559720 120.856455 1153.631028 120.856455 Q 1117.511132 120.856455 1095.770721 94.836435 Q 1087.040319 84.394191 1087.040319 77.718001 Q 1090.635191 65.221544 1115.285736 65.221544 Q 1147.126023 65.221544 1173.488412 81.141688 Q 1196.427114 95.007620 1196.427114 102.368547 Z M 1386.441734 210.728235 L 1299.822456 210.728235 L 1299.822456 72.924840 Q 1299.822456 67.104572 1303.588512 61.626673 Q 1307.525752 55.635221 1313.174835 55.635221 Q 1338.681302 55.635221 1338.681302 108.359998 L 1373.089355 88.673799 Q 1353.403155 45.021792 1312.147729 45.192976 Q 1288.181921 45.364161 1274.829543 67.104572 Q 1269.009275 76.519711 1269.009275 85.934850 L 1269.009275 210.728235 L 1233.231747 210.728235 L 1233.231747 231.270356 L 1269.009275 231.270356 L 1269.009275 288.788295 L 1299.822456 267.390252 L 1299.822456 231.270356 L 1386.441734 231.270356 Z M 1442.076645 249.244712 Q 1441.391907 248.559975 1438.139405 248.559975 Q 1435.400455 248.559975 1433.346243 249.244712 L 1422.219261 272.012229 Q 1415.371887 282.796843 1403.645760 286.648491 Q 1391.919632 290.500138 1389.180683 295.122116 Q 1386.612918 302.996595 1379.251991 319.259108 L 1379.251991 323.196348 L 1385.928180 323.196348 Q 1399.109375 319.087924 1407.326223 315.493052 Q 1420.849786 309.501600 1425.471763 301.627121 Q 1428.039529 297.347512 1433.346243 279.715525 Q 1438.310589 263.110644 1441.734276 256.605639 Q 1442.076645 253.524321 1442.076645 249.244712 Z M 1452.176521 210.728235 L 1382.504494 210.728235 L 1382.504494 231.270356 L 1452.176521 231.270356 Z M 1432.661506 41.598105 L 1403.902536 57.518249 L 1403.902536 189.672561 L 1432.661506 189.672561 Z" transform="scale(1.000000,1.000000) translate(450.000000,160.000000)" fill="url(#105553203931936105553131543104)" opacity="1.000000"></path>
    </g>
</svg>